<?xml version="1.0" encoding="UTF-8" standalone="no"?>
<!DOCTYPE svg PUBLIC "-//W3C//DTD SVG 1.1//EN" "http://www.w3.org/Graphics/SVG/1.1/DTD/svg11.dtd">
<svg width="100%" height="100%" viewBox="0 0 1500 500" version="1.1" xmlns="http://www.w3.org/2000/svg" xmlns:xlink="http://www.w3.org/1999/xlink" xml:space="preserve" xmlns:serif="http://www.serif.com/" style="fill-rule:evenodd;clip-rule:evenodd;stroke-linejoin:round;stroke-miterlimit:2;">
    <g transform="matrix(1,0,0,1,0,-2136)">
        <g id="twitter-cover" serif:id="twitter cover" transform="matrix(1.38889,0,0,0.462963,0,2136)">
            <rect x="0" y="0" width="1080" height="1080" style="fill:none;"/>
            <g transform="matrix(0.869265,0,0,1.46688,225.424,-270.951)">
                <g id="borg" transform="matrix(0.855654,0,0,1.52116,35.8271,335.327)">
                    <g id="Group">
                        <path id="Path" d="M193.298,147.417C185.249,141.38 175.993,135.746 165.932,132.124C178.81,118.039 186.859,99.526 186.859,79.404C186.859,57.269 177.2,37.549 162.712,23.061C147.822,8.975 127.297,0.122 105.162,0.122C82.625,0.122 62.503,8.975 47.613,23.061C33.125,37.549 23.868,57.269 23.868,79.404L23.868,285.859L122.87,285.859C150.237,285.859 175.591,276.603 193.298,262.115C211.408,247.627 222.677,227.102 222.677,204.565C222.677,182.43 211.408,161.905 193.298,147.417ZM71.759,47.61C80.211,39.561 91.882,34.33 105.162,34.33C118.041,34.33 129.712,39.561 138.566,47.61C147.017,56.062 152.249,66.928 152.249,79.404C152.249,91.477 147.017,102.746 138.566,110.795C130.114,118.843 118.443,124.075 105.162,124.075L58.479,124.075L58.479,79.001C58.479,66.928 63.308,55.659 71.759,47.61ZM163.517,237.968C153.054,246.419 138.968,251.651 122.87,251.651L58.479,251.651L58.479,157.881L122.87,157.881C138.968,157.881 153.054,163.113 163.517,171.564C173.981,180.016 180.42,191.686 180.42,204.565C180.42,217.845 173.981,229.516 163.517,237.968Z" style="fill:rgb(34,56,67);fill-rule:nonzero;"/>
                    </g>
                </g>
                <g transform="matrix(0.563118,0,0,1.0011,72.791,335.512)">
                    <g id="g1">
                        <path id="path1" d="M737.81,285.859L737.81,205.772C737.81,183.637 728.553,163.515 713.663,149.429C711.248,147.015 708.833,145.003 706.419,142.99C708.833,140.978 711.248,138.966 713.663,136.551C728.553,122.063 737.81,101.941 737.81,80.209C737.81,58.074 728.553,37.952 713.663,23.463C698.772,8.975 678.247,0.122 656.113,0.122C633.576,0.122 613.051,8.975 598.16,23.463C583.672,37.952 574.416,57.671 574.416,79.806L574.416,285.859L609.027,285.859L609.027,145.405C622.307,154.661 638.405,159.893 656.113,159.893L656.515,159.893C669.394,160.296 680.662,165.125 689.114,173.576C697.967,182.028 703.199,193.296 703.199,205.772L702.796,285.859L737.81,285.859ZM622.71,112.404C613.856,103.953 609.027,92.684 609.027,80.209C609.027,67.33 613.856,56.062 622.71,47.61C631.161,39.159 642.832,34.33 656.113,34.33C668.991,34.33 680.662,39.159 689.516,47.61C697.967,56.062 703.199,67.33 703.199,80.209C703.199,92.684 697.967,103.953 689.516,112.404C680.662,120.453 669.394,125.685 656.515,125.685L656.113,125.685C642.832,125.685 631.161,120.856 622.71,112.404Z" style="fill:rgb(34,56,67);fill-rule:nonzero;"/>
                    </g>
                    <g id="g2">
                        <path id="path2" d="M911.264,145.003L911.264,179.613L1015.9,179.613C1010.27,196.113 1001.01,211.004 988.937,223.077C969.217,242.797 941.448,255.273 910.862,255.273C880.678,255.273 852.909,242.797 833.189,223.077C813.067,202.955 800.591,175.588 800.591,145.003C800.591,114.417 813.067,87.05 833.189,66.928C852.909,47.208 880.678,34.732 910.862,34.732C941.448,34.732 969.217,47.208 988.937,66.928L1013.49,42.378C987.327,16.219 951.107,0.122 910.862,0.122C871.02,0.122 834.799,16.219 808.64,42.378C782.481,68.538 765.981,105.16 765.981,145.003C765.981,184.845 782.481,221.468 808.64,247.627C834.799,273.786 871.02,289.884 910.862,289.884L911.264,289.884C951.107,289.884 987.327,273.786 1013.49,247.627C1039.64,221.468 1056.14,184.845 1056.14,145.003L911.264,145.003Z" style="fill:rgb(34,56,67);fill-rule:nonzero;"/>
                    </g>
                    <g id="galaxy">
                        <g id="g3">
                            <g id="g4">
                                <path id="path3" d="M395.926,290C315.897,290 250.926,225.028 250.926,145C250.926,64.972 315.897,0 395.926,0C475.954,0 540.926,64.972 540.926,145C540.926,225.028 475.954,290 395.926,290ZM395.463,265.539C461.988,265.539 516.002,211.525 516.002,145C516.002,78.475 461.988,24.461 395.463,24.461C328.937,24.461 274.924,78.475 274.924,145C274.924,211.525 328.937,265.539 395.463,265.539Z" style="fill:rgb(34,56,67);"/>
                            </g>
                            <g id="g5">
                                <path id="path4" d="M263.477,105.801L281.816,104.797C296.838,104.797 309.034,92.602 309.034,77.58L311.368,34.78L313.702,77.58C313.702,92.602 325.897,104.797 340.919,104.797L383.582,107.131L340.919,109.465C325.897,109.465 313.702,121.661 313.702,136.683L311.368,179.345L309.034,136.683C309.034,121.661 296.838,109.465 281.816,109.465L263.477,108.462L263.477,105.801Z" style="fill:rgb(34,56,67);"/>
                            </g>
                            <g id="g6">
                                <path id="path5" d="M412.152,281.458L410.248,246.661C410.248,229.087 395.98,214.819 378.406,214.819L328.495,212.088L378.406,209.358C395.98,209.358 410.248,195.09 410.248,177.516L412.979,127.444L415.709,177.516C415.709,195.09 429.977,209.358 447.551,209.358L497.462,212.088L447.551,214.819C429.977,214.819 415.709,229.087 415.709,246.661L413.805,281.458L412.152,281.458Z" style="fill:rgb(34,56,67);"/>
                            </g>
                            <g id="g7">
                                <path id="path6" d="M432.789,35.419L434.669,69.887C434.669,81.984 444.49,91.805 456.587,91.805L490.944,93.685L456.587,95.564C444.49,95.564 434.669,105.386 434.669,117.483L432.789,151.839L430.91,117.483C430.91,105.386 421.088,95.564 408.991,95.564L374.634,93.685L408.991,91.805C421.088,91.805 430.91,81.984 430.91,69.887L432.789,35.419Z" style="fill:rgb(34,56,67);"/>
                            </g>
                        </g>
                    </g>
                </g>
                <g transform="matrix(0.36173,-1.16618e-32,-2.91546e-33,0.754411,192.658,-1908.19)">
                    <path d="M248.608,3548.3L248.608,3486.68C247.168,3451.09 216.64,3427.27 178.048,3427.27C138.88,3427.27 108.352,3452.81 108.352,3488.65C108.352,3522.28 138.88,3550.27 178.048,3550.27C196.192,3550.27 211.744,3544.62 223.552,3535.29L223.552,3548.3L248.608,3548.3ZM178.048,3529.4C153.568,3529.4 134.272,3509.51 134.272,3488.65C134.272,3464.1 154.432,3447.4 179.488,3447.4C203.392,3447.4 223.552,3463.36 223.552,3488.65C223.552,3515.65 202.528,3529.4 178.048,3529.4Z" style="fill:rgb(34,56,67);fill-rule:nonzero;"/>
                    <path d="M374.752,3517.37C366.4,3525.47 354.016,3529.4 341.344,3529.4C316.576,3529.4 296.992,3509.27 296.992,3488.89C296.992,3464.1 317.152,3447.65 342.208,3447.65C355.168,3447.65 366.688,3451.82 374.752,3459.92L392.032,3445.44C379.072,3433.9 361.216,3427.27 341.344,3427.27C301.6,3427.27 271.36,3452.81 271.36,3488.89C271.36,3522.03 301.6,3550.27 341.344,3550.27C360.928,3550.27 378.496,3542.9 391.744,3531.61L374.752,3517.37Z" style="fill:rgb(34,56,67);fill-rule:nonzero;"/>
                    <path d="M545.824,3548.3L545.824,3486.68C544.384,3451.09 513.856,3427.27 475.264,3427.27C436.096,3427.27 405.568,3452.81 405.568,3488.65C405.568,3522.28 436.096,3550.27 475.264,3550.27C493.408,3550.27 508.96,3544.62 520.768,3535.29L520.768,3548.3L545.824,3548.3ZM475.264,3529.4C450.784,3529.4 431.488,3509.51 431.488,3488.65C431.488,3464.1 451.648,3447.4 476.704,3447.4C500.608,3447.4 520.768,3463.36 520.768,3488.65C520.768,3515.65 499.744,3529.4 475.264,3529.4Z" style="fill:rgb(34,56,67);fill-rule:nonzero;"/>
                    <path d="M684.064,3374L684.064,3441.02C671.968,3432.43 655.552,3427.27 639.136,3427.27C599.68,3427.27 568.864,3452.81 568.864,3488.89C568.864,3522.53 599.68,3550.27 639.136,3550.27C677.152,3550.27 709.12,3522.53 709.12,3489.14L709.12,3374L684.064,3374ZM639.136,3529.4C614.656,3529.4 595.072,3510.01 595.072,3488.89C595.072,3464.34 615.232,3447.65 640,3447.65C663.904,3447.65 683.488,3463.36 684.064,3487.66L684.064,3488.65C684.064,3515.65 663.328,3529.4 639.136,3529.4Z" style="fill:rgb(34,56,67);fill-rule:nonzero;"/>
                    <path d="M871.552,3488.65C871.552,3451.82 840.448,3427.03 801.28,3427.03C761.824,3427.03 731.584,3452.56 731.584,3488.65C731.584,3522.77 761.824,3550.27 801.28,3550.27C832.672,3550.27 858.304,3534.56 867.52,3510.01L841.888,3510.01C834.112,3524.49 818.848,3529.64 801.28,3529.64C780.832,3529.64 763.84,3516.14 758.656,3499.45L870.688,3499.45C871.264,3496.01 871.552,3492.33 871.552,3488.65ZM802.432,3447.4C823.744,3447.4 842.176,3459.92 845.92,3480.55L757.504,3480.55C761.824,3460.41 780.544,3447.4 802.432,3447.4Z" style="fill:rgb(34,56,67);fill-rule:nonzero;"/>
                    <path d="M951.04,3427.27C918.208,3427.27 896.032,3447.65 896.032,3482.26L896.032,3548.3L918.208,3548.3L918.208,3478.83C918.208,3460.41 932.032,3448.14 951.04,3448.14C968.896,3448.14 982.144,3460.41 982.144,3478.83L982.144,3548.3L1005.18,3548.3L1005.18,3478.83C1005.18,3460.41 1018.72,3448.14 1036.29,3448.14C1055.01,3448.14 1068.54,3460.41 1068.54,3478.83L1068.54,3548.3L1091.3,3548.3L1091.3,3482.26C1091.3,3447.65 1068.54,3427.27 1036.29,3427.27C1018.72,3427.27 1003.17,3434.15 993.376,3445.93C983.872,3434.15 968.608,3427.27 951.04,3427.27Z" style="fill:rgb(34,56,67);fill-rule:nonzero;"/>
                    <path d="M1122.4,3548.3L1147.17,3548.3L1147.17,3429.48L1122.4,3429.48L1122.4,3548.3ZM1150.05,3388.48C1150.05,3381.37 1143.14,3375.47 1134.78,3375.47C1126.72,3375.47 1119.81,3381.37 1119.81,3388.48C1119.81,3395.36 1126.72,3401.25 1134.78,3401.25C1143.14,3401.25 1150.05,3395.36 1150.05,3388.48Z" style="fill:rgb(34,56,67);fill-rule:nonzero;"/>
                    <path d="M1312.77,3548.3L1312.77,3486.68C1311.33,3451.09 1280.8,3427.27 1242.21,3427.27C1203.04,3427.27 1172.51,3452.81 1172.51,3488.65C1172.51,3522.28 1203.04,3550.27 1242.21,3550.27C1260.35,3550.27 1275.9,3544.62 1287.71,3535.29L1287.71,3548.3L1312.77,3548.3ZM1242.21,3529.4C1217.73,3529.4 1198.43,3509.51 1198.43,3488.65C1198.43,3464.1 1218.59,3447.4 1243.65,3447.4C1267.55,3447.4 1287.71,3463.36 1287.71,3488.65C1287.71,3515.65 1266.69,3529.4 1242.21,3529.4Z" style="fill:rgb(34,56,67);fill-rule:nonzero;"/>
                </g>
            </g>
        </g>
    </g>
</svg>
