<?xml version="1.0" encoding="UTF-8" standalone="no"?>
<!DOCTYPE svg PUBLIC "-//W3C//DTD SVG 1.1//EN" "http://www.w3.org/Graphics/SVG/1.1/DTD/svg11.dtd">
<svg width="100%" height="100%" viewBox="0 0 1920 1920" version="1.1" xmlns="http://www.w3.org/2000/svg" xmlns:xlink="http://www.w3.org/1999/xlink" xml:space="preserve" xmlns:serif="http://www.serif.com/" style="fill-rule:evenodd;clip-rule:evenodd;stroke-linejoin:round;stroke-miterlimit:2;">
    <g transform="matrix(1,0,0,1,-2036,-2852)">
        <g id="ba-dark" serif:id="ba dark" transform="matrix(1.77778,0,0,1.77778,2036,2852)">
            <rect x="0" y="0" width="1080" height="1080" style="fill:none;"/>
            <g transform="matrix(1,0,0,1,162.869,122.091)">
                <g transform="matrix(2.79572,0,0,2.79572,-403.855,-9244.96)">
                    <path d="M222.727,3522.48L180.84,3522.48L180.84,3374.74C180.84,3358.9 187.464,3344.78 197.832,3334.42C208.488,3324.34 222.888,3318 239.016,3318C254.856,3318 269.544,3324.34 280.2,3334.42C290.568,3344.78 297.48,3358.9 297.48,3374.74C297.48,3389.14 291.72,3402.38 282.504,3412.46C289.704,3415.06 296.328,3419.09 302.088,3423.41C307.295,3427.57 311.711,3432.44 315.132,3437.79C312.694,3437.58 310.227,3437.47 307.734,3437.47C298.68,3437.47 289.955,3438.89 281.769,3441.52C281.444,3441.24 281.113,3440.96 280.776,3440.69C273.288,3434.64 263.208,3430.9 251.688,3430.9L205.608,3430.9L205.608,3498L226.311,3498C223.98,3505.75 222.727,3513.97 222.727,3522.48ZM215.112,3351.98C209.064,3357.74 205.608,3365.81 205.608,3374.45L205.608,3406.7L239.016,3406.7C248.52,3406.7 256.872,3402.96 262.92,3397.2C268.968,3391.44 272.712,3383.38 272.712,3374.74C272.712,3365.81 268.968,3358.03 262.92,3351.98C256.584,3346.22 248.232,3342.48 239.016,3342.48C229.512,3342.48 221.16,3346.22 215.112,3351.98Z" style="fill:rgb(244,250,255);"/>
                </g>
                <g transform="matrix(2.79572,0,0,2.79572,-689.605,-9049.71)">
                    <path d="M480.072,3522.48L480.072,3450.19C478.632,3408.43 448.104,3380.5 409.512,3380.5C370.344,3380.5 339.816,3410.45 339.816,3452.5C339.816,3491.95 370.344,3524.78 409.512,3524.78C427.656,3524.78 443.208,3518.16 455.016,3507.22L455.016,3522.48L480.072,3522.48ZM409.512,3500.3C385.032,3500.3 365.736,3476.98 365.736,3452.5C365.736,3423.7 385.896,3404.11 410.952,3404.11C434.856,3404.11 455.016,3422.83 455.016,3452.5C455.016,3484.18 433.992,3500.3 409.512,3500.3Z" style="fill:rgb(244,250,255);fill-rule:nonzero;"/>
                </g>
            </g>
        </g>
    </g>
</svg>
