<?xml version="1.0" encoding="UTF-8"?>
<!-- Generated by Pixelmator Pro 3.3 -->
<svg width="1080" height="1080" viewBox="0 0 1080 1080" xmlns="http://www.w3.org/2000/svg" xmlns:xlink="http://www.w3.org/1999/xlink">
    <g id="B">
        <g id="g1">
            <path id="path1" fill="#d9ccc6" fill-rule="evenodd" stroke="none" d="M 677.807068 533.195374 L 677.807068 533.195374 C 710.50238 533.195374 738.101929 544.553589 760.606262 567.270447 C 783.11084 589.987366 794.575317 618.117676 795 651.662048 C 795 683.932678 782.898499 711.744629 758.695557 735.098267 C 734.492554 758.451904 706.468567 770.128723 674.622559 770.128723 L 344.699188 770.128723 L 344.699188 755.479736 L 386.735779 752.932007 C 404.569519 751.233521 416.458557 746.562744 422.403137 738.919739 C 428.347717 731.276733 431.320007 721.51062 431.320007 709.62146 L 431.320007 623.637573 L 359.348297 623.637573 L 359.348297 393.073486 C 359.348297 372.692017 357.22522 357.618591 352.979187 347.852234 C 348.733032 338.086182 341.090027 331.717163 330.050079 328.744751 C 319.010132 325.772583 303.724274 324.286499 284.191986 324.286499 L 284.191986 309.637268 C 366.567139 309.637268 448.728699 309.637268 530.679199 309.637268 C 571.866699 309.637268 613.053589 309.637268 654.241089 309.637268 C 683.963989 309.637268 710.077454 320.0401 732.582031 340.846252 C 755.086609 361.652405 767.400208 387.128906 769.523254 417.276428 C 770.372375 447.848694 761.774231 473.537231 743.728149 494.343384 C 725.682068 515.149536 700.948669 525.552368 669.5271 525.552368 L 621.121399 525.552368 L 621.121399 533.195374 Z M 517.303833 324.286499 L 517.303833 324.286499 L 517.303833 525.552368 L 535.137573 525.552368 C 555.09436 525.552368 570.274048 520.457153 580.677124 510.266418 C 591.0802 500.075623 598.086243 487.231384 601.695374 471.732788 C 605.304688 456.234497 607.109253 440.630127 607.109253 424.919434 C 607.109253 409.208801 605.304688 393.604431 601.695374 378.105835 C 598.086243 362.607544 591.0802 349.763245 580.677124 339.57251 C 570.274048 329.381775 555.09436 324.286499 535.137573 324.286499 Z M 556.155823 755.479736 L 556.155823 755.479736 C 578.23584 755.479736 595.113953 749.853516 606.790771 738.601318 C 618.467712 727.348938 626.429077 713.230957 630.675232 696.246216 C 634.921265 679.261597 637.044373 661.852783 637.044373 644.019043 C 637.044373 626.609985 634.921265 609.94397 630.675232 594.020996 C 626.429077 578.097961 618.467712 565.1474 606.790771 555.169006 C 595.113953 545.190552 578.447998 540.201355 556.792786 540.201355 L 517.303833 540.201355 L 517.303833 623.637573 L 445.969116 623.637573 L 445.969116 708.984497 C 445.969116 729.790649 452.550568 742.741211 465.71347 747.836487 C 478.876526 752.932007 496.07312 755.479736 517.303833 755.479736 Z"/>
        </g>
    </g>
</svg>
